<svg width="129" height="58" viewBox="0 0 129 58" fill="none" xmlns="http://www.w3.org/2000/svg">
<path d="M7.09711 30.4998V50.4998H2.26312V30.4998H7.09711ZM10.1318 50.4998V30.4998H18.4716C19.969 30.4998 21.2223 30.7113 22.2314 31.1345C23.247 31.5577 24.0087 32.1501 24.5165 32.9119C25.0309 33.6736 25.288 34.5557 25.288 35.5583C25.288 36.3201 25.1285 37.0004 24.8095 37.5994C24.4905 38.1918 24.051 38.6833 23.4911 39.074C22.9313 39.4646 22.2835 39.738 21.5478 39.8943V40.0896C22.3551 40.1287 23.1005 40.3468 23.7841 40.7439C24.4742 41.141 25.0276 41.6944 25.4443 42.4041C25.8609 43.1072 26.0693 43.9405 26.0693 44.9041C26.0693 45.9783 25.7958 46.9386 25.249 47.7849C24.7021 48.6248 23.9111 49.2888 22.8759 49.7771C21.8408 50.2589 20.5842 50.4998 19.1064 50.4998H10.1318ZM14.9658 46.6033H17.954C19.0022 46.6033 19.7737 46.4047 20.2685 46.0076C20.7698 45.6104 21.0204 45.057 21.0204 44.3474C21.0204 43.8331 20.9 43.3904 20.6591 43.0193C20.4182 42.6417 20.0764 42.352 19.6337 42.1501C19.191 41.9418 18.6604 41.8376 18.0419 41.8376H14.9658V46.6033ZM14.9658 38.7224H17.6415C18.1689 38.7224 18.6376 38.6345 19.0478 38.4587C19.4579 38.283 19.777 38.0291 20.0048 37.697C20.2392 37.365 20.3564 36.9646 20.3564 36.4958C20.3564 35.8253 20.1188 35.2979 19.6435 34.9138C19.1682 34.5297 18.527 34.3376 17.7197 34.3376H14.9658V38.7224ZM37.9931 38.6638V42.3357H28.7353V38.6638H37.9931ZM41.3647 50.4998V30.4998H46.1987V38.5271H54.0795V30.4998H58.9037V50.4998H54.0795V42.4626H46.1987V50.4998H41.3647ZM66.1645 50.7537C65.2075 50.7537 64.3578 50.5942 63.6157 50.2751C62.88 49.9496 62.2973 49.4613 61.8676 48.8103C61.4444 48.1528 61.2328 47.3292 61.2328 46.3396C61.2328 45.5063 61.3793 44.8031 61.6723 44.2302C61.9653 43.6573 62.3689 43.1918 62.8832 42.8337C63.3976 42.4757 63.99 42.2055 64.6606 42.0232C65.3312 41.8344 66.0473 41.7074 66.809 41.6423C67.6619 41.5642 68.3487 41.4828 68.8696 41.3982C69.3904 41.307 69.768 41.1801 70.0024 41.0173C70.2433 40.8481 70.3637 40.6104 70.3637 40.3044V40.2556C70.3637 39.7543 70.1912 39.3669 69.8461 39.0935C69.5011 38.8201 69.0356 38.6833 68.4496 38.6833C67.8181 38.6833 67.3103 38.8201 66.9262 39.0935C66.5421 39.3669 66.298 39.7445 66.1938 40.2263L61.7895 40.0701C61.9197 39.1586 62.255 38.3448 62.7953 37.6287C63.3422 36.906 64.0909 36.3396 65.0414 35.9294C65.9985 35.5128 67.1476 35.3044 68.4887 35.3044C69.4457 35.3044 70.3279 35.4184 71.1352 35.6462C71.9425 35.8676 72.6456 36.1931 73.2446 36.6228C73.8435 37.046 74.3058 37.5668 74.6313 38.1853C74.9633 38.8038 75.1293 39.5102 75.1293 40.3044V50.4998H70.6371V48.4099H70.52C70.253 48.9177 69.9112 49.3474 69.4946 49.699C69.0844 50.0505 68.5994 50.3142 68.0395 50.49C67.4861 50.6658 66.8611 50.7537 66.1645 50.7537ZM67.6391 47.6287C68.1534 47.6287 68.6157 47.5245 69.0258 47.3162C69.4425 47.1078 69.7745 46.8214 70.0219 46.4568C70.2693 46.0857 70.393 45.656 70.393 45.1677V43.7419C70.2563 43.8136 70.0903 43.8787 69.895 43.9373C69.7062 43.9958 69.4978 44.0512 69.27 44.1033C69.0421 44.1554 68.8077 44.2009 68.5668 44.24C68.3259 44.2791 68.0948 44.3149 67.8735 44.3474C67.4243 44.419 67.0401 44.5297 66.7211 44.6794C66.4086 44.8292 66.1677 45.0245 65.9985 45.2654C65.8357 45.4998 65.7543 45.7797 65.7543 46.1052C65.7543 46.6 65.9301 46.9776 66.2817 47.238C66.6398 47.4985 67.0922 47.6287 67.6391 47.6287ZM78.0493 50.4998V30.4998H82.8246V38.0681H82.9223C83.1176 37.6124 83.3943 37.1729 83.7524 36.7498C84.117 36.3266 84.5792 35.9815 85.1391 35.7146C85.7055 35.4412 86.3826 35.3044 87.1703 35.3044C88.212 35.3044 89.1853 35.5779 90.0903 36.1248C91.0017 36.6716 91.7374 37.5147 92.2973 38.6541C92.8572 39.7934 93.1371 41.2452 93.1371 43.0095C93.1371 44.7087 92.867 46.1313 92.3266 47.2771C91.7927 48.4229 91.0701 49.2823 90.1586 49.8552C89.2537 50.4281 88.2478 50.7146 87.1411 50.7146C86.3858 50.7146 85.7315 50.5909 85.1782 50.3435C84.6248 50.0961 84.1593 49.7706 83.7817 49.3669C83.4106 48.9633 83.1241 48.5304 82.9223 48.0681H82.7758V50.4998H78.0493ZM82.727 42.9998C82.727 43.807 82.8344 44.5102 83.0493 45.1091C83.2706 45.7081 83.5864 46.1736 83.9965 46.5056C84.4132 46.8311 84.9112 46.9939 85.4907 46.9939C86.0766 46.9939 86.5746 46.8311 86.9848 46.5056C87.395 46.1736 87.7042 45.7081 87.9125 45.1091C88.1274 44.5102 88.2348 43.807 88.2348 42.9998C88.2348 42.1925 88.1274 41.4926 87.9125 40.9001C87.7042 40.3077 87.395 39.8487 86.9848 39.5232C86.5812 39.1977 86.0831 39.0349 85.4907 39.0349C84.9047 39.0349 84.4067 39.1944 83.9965 39.5134C83.5864 39.8324 83.2706 40.2882 83.0493 40.8806C82.8344 41.4731 82.727 42.1794 82.727 42.9998ZM95.6396 50.4998V35.4998H100.415V50.4998H95.6396ZM98.0322 33.7517C97.3616 33.7517 96.7854 33.5304 96.3036 33.0876C95.8219 32.6384 95.581 32.0981 95.581 31.4666C95.581 30.8416 95.8219 30.3077 96.3036 29.865C96.7854 29.4158 97.3616 29.1912 98.0322 29.1912C98.7092 29.1912 99.2854 29.4158 99.7607 29.865C100.242 30.3077 100.483 30.8416 100.483 31.4666C100.483 32.0981 100.242 32.6384 99.7607 33.0876C99.2854 33.5304 98.7092 33.7517 98.0322 33.7517ZM111.921 35.4998V39.0154H102.458V35.4998H111.921ZM104.441 31.906H109.216V45.783C109.216 46.0759 109.262 46.3136 109.353 46.4958C109.451 46.6716 109.591 46.7986 109.773 46.8767C109.955 46.9483 110.173 46.9841 110.427 46.9841C110.609 46.9841 110.802 46.9679 111.003 46.9353C111.212 46.8962 111.368 46.8637 111.472 46.8376L112.195 50.2849C111.967 50.35 111.645 50.4314 111.228 50.5291C110.818 50.6267 110.326 50.6886 109.753 50.7146C108.634 50.7667 107.673 50.6365 106.872 50.324C106.078 50.005 105.47 49.5102 105.046 48.8396C104.63 48.169 104.428 47.3259 104.441 46.3103V31.906ZM127.266 40.0798L122.881 40.197C122.835 39.8845 122.712 39.6078 122.51 39.3669C122.308 39.1195 122.044 38.9275 121.719 38.7908C121.4 38.6475 121.029 38.5759 120.605 38.5759C120.052 38.5759 119.58 38.6866 119.189 38.908C118.805 39.1293 118.616 39.4288 118.623 39.8064C118.616 40.0994 118.734 40.3533 118.975 40.5681C119.222 40.783 119.661 40.9555 120.293 41.0857L123.184 41.6326C124.681 41.919 125.794 42.3943 126.523 43.0583C127.259 43.7224 127.63 44.6013 127.637 45.6951C127.63 46.7237 127.324 47.6189 126.719 48.3806C126.12 49.1423 125.299 49.7348 124.258 50.158C123.216 50.5746 122.025 50.783 120.684 50.783C118.542 50.783 116.852 50.3435 115.615 49.4646C114.385 48.5792 113.682 47.3943 113.506 45.9099L118.223 45.7927C118.327 46.3396 118.597 46.7563 119.033 47.0427C119.469 47.3292 120.026 47.4724 120.703 47.4724C121.315 47.4724 121.813 47.3585 122.197 47.1306C122.581 46.9028 122.777 46.6 122.783 46.2224C122.777 45.8839 122.627 45.6137 122.334 45.4119C122.041 45.2035 121.582 45.0408 120.957 44.9236L118.34 44.4255C116.836 44.1521 115.716 43.6475 114.98 42.9119C114.245 42.1697 113.88 41.2257 113.887 40.0798C113.88 39.0772 114.147 38.2211 114.687 37.5115C115.228 36.7953 115.996 36.2485 116.992 35.8708C117.988 35.4932 119.163 35.3044 120.518 35.3044C122.549 35.3044 124.15 35.7309 125.322 36.5837C126.494 37.4301 127.142 38.5955 127.266 40.0798Z" fill="white"/>
<rect x="7.24945" y="0.999756" width="15" height="15" rx="3.5" fill="#1E40AF" stroke="#27272A"/>
<rect x="27.2495" y="0.999756" width="15" height="15" rx="3.5" fill="#1D4ED8" stroke="#6D28D9"/>
<rect x="47.2495" y="0.999756" width="15" height="15" rx="3.5" fill="#2563EB" stroke="#7C3AED"/>
<rect x="67.2495" y="0.999756" width="15" height="15" rx="3.5" fill="#2563EB" stroke="#8B5CF6"/>
<rect x="87.2495" y="0.999756" width="15" height="15" rx="3.5" fill="#60A5FA" stroke="#A78BFA"/>
<rect x="107.249" y="0.999756" width="15" height="15" rx="3.5" fill="#93C5FD" stroke="#C4B5FD"/>
</svg>
