<svg width="128" height="58" viewBox="0 0 128 58" fill="none" xmlns="http://www.w3.org/2000/svg">
<path d="M6.46307 30.6361V50.9998H1.54119V30.6361H6.46307ZM9.55291 50.9998V30.6361H18.0444C19.569 30.6361 20.8451 30.8516 21.8725 31.2824C22.9066 31.7133 23.6822 32.3165 24.1992 33.0921C24.7229 33.8677 24.9847 34.7659 24.9847 35.7867C24.9847 36.5623 24.8223 37.255 24.4975 37.8648C24.1727 38.468 23.7253 38.9685 23.1552 39.3662C22.5851 39.764 21.9255 40.0424 21.1765 40.2015V40.4003C21.9985 40.4401 22.7575 40.6622 23.4535 41.0665C24.1561 41.4709 24.7196 42.0343 25.1438 42.7569C25.5681 43.4728 25.7802 44.3213 25.7802 45.3023C25.7802 46.3961 25.5018 47.3738 24.945 48.2356C24.3881 49.0907 23.5827 49.7668 22.5288 50.264C21.4748 50.7545 20.1954 50.9998 18.6907 50.9998H9.55291ZM14.4748 47.0324H17.5174C18.5846 47.0324 19.3701 46.8302 19.8739 46.4259C20.3844 46.0215 20.6396 45.4581 20.6396 44.7356C20.6396 44.2119 20.5169 43.7611 20.2717 43.3833C20.0264 42.9988 19.6784 42.7038 19.2276 42.4983C18.7769 42.2862 18.2366 42.1802 17.6069 42.1802H14.4748V47.0324ZM14.4748 39.0083H17.1992C17.7362 39.0083 18.2134 38.9188 18.631 38.7398C19.0487 38.5608 19.3735 38.3023 19.6055 37.9642C19.8441 37.6262 19.9634 37.2185 19.9634 36.7412C19.9634 36.0585 19.7215 35.5215 19.2376 35.1304C18.7537 34.7393 18.1007 34.5438 17.2788 34.5438H14.4748V39.0083ZM37.9208 40.8875V44.6361H28.4947V40.8875H37.9208ZM46.2159 42.2895V50.9998H41.3537V30.6361H46.0568V38.531H46.2259C46.5705 37.5897 47.134 36.8539 47.9162 36.3236C48.705 35.7933 49.6695 35.5282 50.8097 35.5282C51.8835 35.5282 52.8182 35.7668 53.6136 36.2441C54.4091 36.7147 55.0256 37.3809 55.4631 38.2427C55.9072 39.1044 56.1259 40.112 56.1193 41.2654V50.9998H51.2571V42.2199C51.2637 41.3714 51.0516 40.7086 50.6207 40.2313C50.1899 39.754 49.5833 39.5154 48.8011 39.5154C48.2907 39.5154 47.84 39.6281 47.4489 39.8534C47.0644 40.0722 46.7628 40.3871 46.544 40.7981C46.3319 41.209 46.2225 41.7062 46.2159 42.2895ZM63.4599 51.2583C62.4854 51.2583 61.6204 51.0959 60.8647 50.7711C60.1156 50.4396 59.5224 49.9425 59.0849 49.2796C58.654 48.6101 58.4386 47.7715 58.4386 46.764C58.4386 45.9155 58.5877 45.1996 58.886 44.6162C59.1843 44.0329 59.5953 43.5589 60.119 43.1944C60.6426 42.8298 61.2459 42.5547 61.9286 42.3691C62.6114 42.1768 63.3406 42.0476 64.1161 41.9813C64.9845 41.9017 65.6838 41.8189 66.2141 41.7327C66.7444 41.6399 67.1289 41.5106 67.3675 41.3449C67.6128 41.1726 67.7354 40.9306 67.7354 40.6191V40.5694C67.7354 40.0589 67.5598 39.6645 67.2085 39.3861C66.8571 39.1077 66.3832 38.9685 65.7866 38.9685C65.1436 38.9685 64.6265 39.1077 64.2354 39.3861C63.8443 39.6645 63.5958 40.049 63.4897 40.5395L59.0053 40.3804C59.1379 39.4524 59.4793 38.6238 60.0295 37.8946C60.5863 37.1588 61.3486 36.5821 62.3164 36.1645C63.2908 35.7403 64.4608 35.5282 65.8263 35.5282C66.8008 35.5282 67.699 35.6442 68.521 35.8762C69.3429 36.1016 70.0588 36.433 70.6687 36.8705C71.2785 37.3014 71.7492 37.8317 72.0806 38.4614C72.4187 39.0911 72.5877 39.8104 72.5877 40.6191V50.9998H68.0138V48.8719H67.8945C67.6228 49.389 67.2747 49.8265 66.8505 50.1844C66.4329 50.5424 65.939 50.8108 65.369 50.9898C64.8055 51.1688 64.1692 51.2583 63.4599 51.2583ZM64.9613 48.0765C65.485 48.0765 65.9556 47.9704 66.3732 47.7583C66.7975 47.5462 67.1355 47.2545 67.3874 46.8833C67.6393 46.5054 67.7653 46.0679 67.7653 45.5708V44.1191C67.6261 44.192 67.457 44.2583 67.2582 44.3179C67.0659 44.3776 66.8538 44.4339 66.6218 44.487C66.3898 44.54 66.1512 44.5864 65.9059 44.6262C65.6606 44.6659 65.4253 44.7024 65.1999 44.7356C64.7425 44.8085 64.3514 44.9212 64.0266 45.0736C63.7085 45.2261 63.4632 45.4249 63.2908 45.6702C63.1251 45.9088 63.0423 46.1939 63.0423 46.5253C63.0423 47.0291 63.2212 47.4136 63.5792 47.6787C63.9438 47.9439 64.4045 48.0765 64.9613 48.0765ZM75.5607 50.9998V30.6361H80.4229V38.3421H80.5224C80.7212 37.8781 81.003 37.4306 81.3675 36.9998C81.7388 36.5689 82.2094 36.2176 82.7795 35.9458C83.3562 35.6674 84.0456 35.5282 84.8477 35.5282C85.9083 35.5282 86.8993 35.8066 87.8207 36.3634C88.7487 36.9202 89.4978 37.7786 90.0678 38.9387C90.6379 40.0987 90.9229 41.5769 90.9229 43.3733C90.9229 45.1034 90.6478 46.5518 90.0977 47.7185C89.5541 48.8852 88.8183 49.7602 87.8903 50.3435C86.9689 50.9268 85.9447 51.2185 84.8178 51.2185C84.0489 51.2185 83.3827 51.0926 82.8192 50.8407C82.2558 50.5888 81.7818 50.2573 81.3974 49.8463C81.0195 49.4354 80.7279 48.9945 80.5224 48.5239H80.3732V50.9998H75.5607ZM80.3235 43.3634C80.3235 44.1854 80.4329 44.9013 80.6516 45.5111C80.877 46.121 81.1985 46.5949 81.6161 46.933C82.0404 47.2644 82.5475 47.4302 83.1374 47.4302C83.734 47.4302 84.2411 47.2644 84.6587 46.933C85.0763 46.5949 85.3912 46.121 85.6033 45.5111C85.8221 44.9013 85.9315 44.1854 85.9315 43.3634C85.9315 42.5414 85.8221 41.8288 85.6033 41.2256C85.3912 40.6224 85.0763 40.1551 84.6587 39.8236C84.2478 39.4922 83.7406 39.3265 83.1374 39.3265C82.5408 39.3265 82.0337 39.4889 81.6161 39.8137C81.1985 40.1385 80.877 40.6025 80.6516 41.2057C80.4329 41.8089 80.3235 42.5282 80.3235 43.3634ZM93.4709 50.9998V35.727H98.3331V50.9998H93.4709ZM95.907 33.9472C95.2242 33.9472 94.6375 33.7218 94.147 33.2711C93.6565 32.8137 93.4112 32.2635 93.4112 31.6205C93.4112 30.9841 93.6565 30.4406 94.147 29.9898C94.6375 29.5324 95.2242 29.3037 95.907 29.3037C96.5964 29.3037 97.183 29.5324 97.6669 29.9898C98.1574 30.4406 98.4027 30.9841 98.4027 31.6205C98.4027 32.2635 98.1574 32.8137 97.6669 33.2711C97.183 33.7218 96.5964 33.9472 95.907 33.9472ZM110.049 35.727V39.3066H100.414V35.727H110.049ZM102.432 32.0679H107.294V46.1972C107.294 46.4955 107.341 46.7374 107.434 46.9231C107.533 47.102 107.676 47.2313 107.861 47.3108C108.047 47.3838 108.269 47.4202 108.527 47.4202C108.713 47.4202 108.908 47.4036 109.114 47.3705C109.326 47.3307 109.485 47.2976 109.591 47.2711L110.327 50.781C110.095 50.8473 109.767 50.9302 109.343 51.0296C108.925 51.129 108.425 51.192 107.841 51.2185C106.701 51.2715 105.723 51.139 104.908 50.8208C104.099 50.496 103.48 49.9922 103.049 49.3094C102.624 48.6266 102.419 47.7682 102.432 46.7341V32.0679ZM125.672 40.3904L121.207 40.5097C121.161 40.1915 121.035 39.9098 120.83 39.6645C120.624 39.4126 120.356 39.2171 120.024 39.0779C119.699 38.932 119.321 38.8591 118.891 38.8591C118.327 38.8591 117.847 38.9718 117.449 39.1972C117.058 39.4226 116.866 39.7275 116.872 40.112C116.866 40.4103 116.985 40.6688 117.23 40.8875C117.482 41.1063 117.929 41.282 118.572 41.4145L121.516 41.9713C123.04 42.263 124.174 42.7469 124.916 43.4231C125.665 44.0992 126.043 44.9941 126.05 46.1077C126.043 47.1551 125.732 48.0665 125.115 48.8421C124.505 49.6177 123.67 50.2209 122.609 50.6517C121.549 51.076 120.336 51.2881 118.97 51.2881C116.789 51.2881 115.069 50.8407 113.81 49.9458C112.557 49.0443 111.841 47.8378 111.662 46.3265L116.464 46.2071C116.571 46.764 116.846 47.1882 117.29 47.4799C117.734 47.7715 118.301 47.9174 118.99 47.9174C119.613 47.9174 120.12 47.8014 120.511 47.5694C120.902 47.3374 121.101 47.0291 121.108 46.6446C121.101 46.2999 120.949 46.0249 120.651 45.8194C120.352 45.6072 119.885 45.4415 119.249 45.3222L116.584 44.8151C115.053 44.5367 113.912 44.023 113.163 43.2739C112.414 42.5182 112.043 41.557 112.05 40.3904C112.043 39.3695 112.315 38.4979 112.865 37.7753C113.415 37.0462 114.197 36.4893 115.212 36.1049C116.226 35.7204 117.422 35.5282 118.801 35.5282C120.869 35.5282 122.5 35.9624 123.693 36.8307C124.886 37.6925 125.546 38.879 125.672 40.3904Z" fill="white"/>
<rect x="6.5" y="0.499756" width="15" height="15" rx="3.5" fill="#1E40AF" stroke="#27272A"/>
<rect x="26.5" y="0.499756" width="15" height="15" rx="3.5" fill="#1D4ED8" stroke="#6D28D9"/>
<rect x="46.5" y="0.499756" width="15" height="15" rx="3.5" fill="#2563EB" stroke="#7C3AED"/>
<rect x="66.5" y="0.499756" width="15" height="15" rx="3.5" fill="#2563EB" stroke="#8B5CF6"/>
<rect x="86.5" y="0.499756" width="15" height="15" rx="3.5" fill="#60A5FA" stroke="#A78BFA"/>
<rect x="106.5" y="0.499756" width="15" height="15" rx="3.5" fill="#93C5FD" stroke="#C4B5FD"/>
</svg>
